<svg xmlns="http://www.w3.org/2000/svg" viewBox="0 0 32 32">
  <style>
    .rim { stroke: #0C6B39; }
    .patch { fill: #0C6B39; }
    .seam { stroke: #0C6B39; }
    @media (prefers-color-scheme: dark) {
      .rim { stroke: #E8F1EA; }
    }
  </style>
  <circle cx="16" cy="16" r="14" fill="#EFC004" class="rim" stroke-width="2.5"/>
  <polygon class="patch" points="16,10.5 10.77,14.3 12.77,20.45 19.23,20.45 21.23,14.3"/>
  <path class="patch" d="M11.44 2.76L11.04 6.27L8.28 8.28L4.82 7.57A14 14 0 0 1 11.44 2.76Z"/>
  <path class="patch" d="M2 16.24L5.21 17.71L6.27 20.96L4.53 24.03A14 14 0 0 1 2 16.24Z"/>
  <path class="patch" d="M11.91 29.39L14.29 26.79L17.71 26.79L20.09 29.39A14 14 0 0 1 11.91 29.39Z"/>
  <path class="patch" d="M27.47 24.03L25.73 20.96L26.79 17.71L30 16.24A14 14 0 0 1 27.47 24.03Z"/>
  <path class="patch" d="M27.18 7.57L23.72 8.28L20.96 6.27L20.56 2.76A14 14 0 0 1 27.18 7.57Z"/>
  <line class="seam" x1="16" y1="10.5" x2="16" y2="2" stroke-width="1.8"/>
  <line class="seam" x1="10.77" y1="14.3" x2="2.69" y2="11.67" stroke-width="1.8"/>
  <line class="seam" x1="12.77" y1="20.45" x2="7.77" y2="27.33" stroke-width="1.8"/>
  <line class="seam" x1="19.23" y1="20.45" x2="24.23" y2="27.33" stroke-width="1.8"/>
  <line class="seam" x1="21.23" y1="14.3" x2="29.31" y2="11.67" stroke-width="1.8"/>
</svg>
