<svg xmlns="http://www.w3.org/2000/svg" viewBox="0 0 32 32">
  <style>
    .rim { stroke: #0C6B39; }
    .patch { fill: #0C6B39; }
    .seam { stroke: #0C6B39; }
    @media (prefers-color-scheme: dark) {
      .rim { stroke: #E8F1EA; }
    }
  </style>
  <circle cx="16" cy="16" r="14" fill="#EFC004" class="rim" stroke-width="2.5"/>
  <polygon class="patch" points="16,10.5 10.77,14.3 12.77,20.45 19.23,20.45 21.23,14.3"/>
  <path class="patch" d="M11.44 2.76L11.04 6.27L8.28 8.28L4.82 7.57A14 14 0 0 1 11.44 2.76Z"/>
  <path class="patch" d="M2 16.24L5.21 17.71L6.27 20.96L4.53 24.03A14 14 0 0 1 2 16.24Z"/>
  <path class="patch" d="M11.91 29.39L14.29 26.79L17.71 26.79L20.09 29.39A14 14 0 0 1 11.91 29.39Z"/>
  <path class="patch" d="M27.47 24.03L25.73 20.96L26.79 17.71L30 16.24A14 14 0 0 1 27.47 24.03Z"/>
  <path class="patch" d="M27.18 7.57L23.72 8.28L20.96 6.27L20.56 2.76A14 14 0 0 1 27.18 7.57Z"/>
  <path class="seam" d="M11.04 6.27L16 7.32L16 10.5M16 7.32L20.96 6.27" fill="none" stroke-width="1.8"/>
  <path class="seam" d="M5.21 17.71L7.74 13.32L10.77 14.3M7.74 13.32L8.28 8.28" fill="none" stroke-width="1.8"/>
  <path class="seam" d="M14.29 26.79L10.9 23.02L12.77 20.45M10.9 23.02L6.27 20.96" fill="none" stroke-width="1.8"/>
  <path class="seam" d="M25.73 20.96L21.1 23.02L19.23 20.45M21.1 23.02L17.71 26.79" fill="none" stroke-width="1.8"/>
  <path class="seam" d="M23.72 8.28L24.26 13.32L21.23 14.3M24.26 13.32L26.79 17.71" fill="none" stroke-width="1.8"/>
</svg>
